<?xml version="1.0" encoding="UTF-8"?>
<svg version="1.1" xmlns="http://www.w3.org/2000/svg" width="596" height="168">
<path d="M0 0 C1.1432373 0.00354492 2.28647461 0.00708984 3.46435547 0.01074219 C12.63376957 0.19005055 19.9953633 1.6215994 28.3125 5.5 C29.63701172 6.10521484 29.63701172 6.10521484 30.98828125 6.72265625 C32.79153862 7.59158338 34.55934143 8.53397385 36.3125 9.5 C36.3125 10.16 36.3125 10.82 36.3125 11.5 C37.19808594 11.91378906 37.19808594 11.91378906 38.1015625 12.3359375 C48.80598952 17.97183724 55.17871593 29.15159924 59.2890625 40.1015625 C65.16666639 59.60202399 60.60197271 78.05592287 51.24609375 95.48681641 C50.15672213 97.47826246 49.05167379 99.45982945 47.9375 101.4375 C47.3504126 102.48127808 47.3504126 102.48127808 46.75146484 103.54614258 C44.208826 108.02525935 41.54711503 112.37661994 38.6015625 116.60546875 C37.69343595 117.9401396 36.83255762 119.30756771 36.0078125 120.6953125 C33.64417217 124.60566678 31.10179593 128.38957598 28.5625 132.1875 C28.02463867 132.9933252 27.48677734 133.79915039 26.93261719 134.62939453 C23.66928526 139.50668899 20.36020866 144.34505392 16.9609375 149.12890625 C14.31425008 152.93587134 11.81364006 156.83951472 9.3046875 160.73828125 C7.19268424 163.66609754 5.00999658 166.10126308 2.3125 168.5 C-0.5 168.8125 -0.5 168.8125 -2.6875 168.5 C-3.6775 166.52 -3.6775 166.52 -4.6875 164.5 C-5.3475 164.5 -6.0075 164.5 -6.6875 164.5 C-7.88292478 162.81874988 -8.99462843 161.07751917 -10.0625 159.3125 C-11.78262936 156.48224309 -13.46381955 153.77842081 -15.5390625 151.1953125 C-18.50229864 147.47779807 -21.07131176 143.5288745 -23.6875 139.5625 C-24.20828125 138.77681641 -24.7290625 137.99113281 -25.265625 137.18164062 C-26.28077967 135.64993629 -27.29481496 134.11748936 -28.30761719 132.58422852 C-29.49483776 130.79100452 -30.69179866 129.00423603 -31.890625 127.21875 C-33.47374913 124.82341435 -34.97643253 122.40842293 -36.4375 119.9375 C-39.50747532 114.77400461 -42.67408095 109.67336542 -45.85546875 104.578125 C-50.6875 96.45948827 -50.6875 96.45948827 -50.6875 93.5 C-51.3475 93.5 -52.0075 93.5 -52.6875 93.5 C-53.6493423 90.98045712 -54.60704241 88.45946363 -55.5625 85.9375 C-55.83191406 85.23302734 -56.10132813 84.52855469 -56.37890625 83.80273438 C-59.5272952 75.47102216 -61.07701991 68.24006785 -61.0625 59.3125 C-61.06088867 58.28890381 -61.05927734 57.26530762 -61.05761719 56.21069336 C-60.9355172 48.68418656 -59.95878853 42.34926035 -56.6875 35.5 C-56.254375 34.44232422 -56.254375 34.44232422 -55.8125 33.36328125 C-52.12505831 24.98422848 -45.98382879 17.87377311 -38.44921875 12.75390625 C-36.65407707 11.56305852 -36.65407707 11.56305852 -35.2734375 9.99609375 C-33.23959895 8.07747265 -31.17334735 7.14400629 -28.625 6 C-27.74714844 5.5978125 -26.86929688 5.195625 -25.96484375 4.78125 C-17.16535751 1.34116479 -9.47900904 -0.05291646 0 0 Z " fill="#0A72BB" transform="translate(60.6875,-0.5)"/>
<path d="M0 0 C10.35894151 6.48681309 15.60383292 16.76823246 19.02734375 28.26953125 C21.61012392 42.72002281 21.14029196 59.56016869 13.02734375 72.26953125 C12.41439453 73.26533203 12.41439453 73.26533203 11.7890625 74.28125 C5.62535029 83.39659904 -3.64148617 88.74796765 -14.28515625 90.95703125 C-28.45359831 92.15774668 -38.68189945 90.3300151 -49.97265625 81.26953125 C-50.46765625 80.77453125 -50.46765625 80.77453125 -50.97265625 80.26953125 C-50.98296371 80.84360214 -50.99327118 81.41767303 -51.00389099 82.00914001 C-51.11173059 87.96218787 -51.22634602 93.9150774 -51.3449707 99.86791992 C-51.38839213 102.09217021 -51.4300617 104.3164554 -51.4699707 106.54077148 C-51.52749931 109.7304132 -51.59124309 112.91987805 -51.65625 116.109375 C-51.68131874 117.61092384 -51.68131874 117.61092384 -51.70689392 119.14280701 C-51.72683914 120.06368607 -51.74678436 120.98456512 -51.76733398 121.93334961 C-51.78287827 122.74831406 -51.79842255 123.5632785 -51.81443787 124.40293884 C-51.97265625 126.26953125 -51.97265625 126.26953125 -52.97265625 127.26953125 C-54.89933132 127.35701332 -56.82917486 127.37650459 -58.7578125 127.3671875 C-59.92763672 127.36396484 -61.09746094 127.36074219 -62.30273438 127.35742188 C-63.53443359 127.34904297 -64.76613281 127.34066406 -66.03515625 127.33203125 C-67.88850586 127.32526367 -67.88850586 127.32526367 -69.77929688 127.31835938 C-72.84379742 127.30652733 -75.90820346 127.29004298 -78.97265625 127.26953125 C-80.22407312 124.76669752 -80.1040734 123.06732102 -80.11309814 120.26576233 C-80.11880829 119.20716507 -80.12451843 118.14856781 -80.13040161 117.05789185 C-80.13151947 115.89160248 -80.13263733 114.72531311 -80.13378906 113.52368164 C-80.13875397 112.29925858 -80.14371887 111.07483551 -80.14883423 109.81330872 C-80.16095517 106.44968068 -80.16840399 103.08611491 -80.17284489 99.72247243 C-80.17577426 97.6221987 -80.17987877 95.52193045 -80.18434906 93.42165947 C-80.19802429 86.85371394 -80.20769129 80.28578091 -80.21155095 73.71782213 C-80.21603441 66.12961584 -80.23359538 58.54158944 -80.26255155 50.95343786 C-80.284145 45.09182427 -80.29425395 39.23026138 -80.29559207 33.36860842 C-80.29664163 29.86576104 -80.30258123 26.36308276 -80.32041168 22.86027718 C-80.33990396 18.9550504 -80.33561273 15.05004977 -80.32910156 11.14477539 C-80.33831635 9.98051025 -80.34753113 8.81624512 -80.35702515 7.61669922 C-80.35145599 6.55528214 -80.34588684 5.49386505 -80.34014893 4.40028381 C-80.34161549 3.4764795 -80.34308205 2.55267519 -80.34459305 1.60087681 C-79.90068626 -1.18158549 -79.21300378 -2.06997837 -76.97265625 -3.73046875 C-74.64428711 -4.1027832 -74.64428711 -4.1027832 -71.9375 -4.09375 C-70.96361328 -4.09310547 -69.98972656 -4.09246094 -68.98632812 -4.09179688 C-67.97119141 -4.07568359 -66.95605469 -4.05957031 -65.91015625 -4.04296875 C-64.38165039 -4.04780273 -64.38165039 -4.04780273 -62.82226562 -4.05273438 C-55.23964766 -3.99746016 -55.23964766 -3.99746016 -52.97265625 -1.73046875 C-52.40745622 0.92490497 -52.23477427 3.56097838 -51.97265625 6.26953125 C-51.54597656 5.82222656 -51.11929687 5.37492187 -50.6796875 4.9140625 C-36.90405252 -8.40711854 -16.17223917 -9.59276409 0 0 Z M-49.16015625 28.83203125 C-52.67937409 35.50640991 -53.70776642 42.56091226 -52.09765625 49.95703125 C-49.7181693 57.23236526 -45.06835061 62.37771803 -38.59765625 66.33203125 C-31.47478934 68.174152 -25.21781446 68.26334695 -18.72265625 64.53125 C-12.93822254 60.36077659 -9.81529035 54.54103796 -8.46484375 47.6953125 C-7.41146594 39.66050514 -8.87872169 34.02417253 -12.78515625 27.01953125 C-16.74309404 22.04383803 -20.70084551 18.67748876 -26.97265625 17.26953125 C-37.04482491 16.1504014 -42.96167004 21.5709474 -49.16015625 28.83203125 Z " fill="#F8F8F9" transform="translate(361.97265625,40.73046875)"/>
<path d="M0 0 C1.77286377 0.01426025 1.77286377 0.01426025 3.58154297 0.02880859 C17.23179786 0.3531451 29.72616998 3.60116998 39.6875 13.5625 C39.35594675 18.11973199 37.90628101 21.69258047 35.875 25.75 C35.37355469 26.77480469 34.87210937 27.79960937 34.35546875 28.85546875 C32.65922935 31.60838188 31.60725137 33.16468927 28.6875 34.5625 C24.54376204 33.51965928 20.91706242 31.04869312 17.1875 29 C8.93430984 24.7241323 0.70465893 23.1471909 -8.4375 25.6875 C-11.14599666 26.79778447 -12.3556514 27.60692056 -14.4375 29.75 C-15.64336123 33.62598253 -15.72042292 36.7856909 -14.3125 40.5625 C-8.92621461 48.26507194 2.28997013 51.00925257 10.765625 54.02734375 C23.71636186 58.64854533 35.61277071 63.93535883 42.0625 76.8125 C45.32817299 85.79654552 45.70033934 98.47616483 41.6875 107.25 C35.36831042 117.37126465 26.32810923 123.78956889 14.7109375 126.59765625 C7.39716285 128.16656075 0.17063666 129.06304426 -7.3125 128.5625 C-8.14523438 128.5315625 -8.97796875 128.500625 -9.8359375 128.46875 C-23.83687878 127.64758042 -37.66935113 123.17770013 -49.265625 115.22265625 C-50.3125 113.5625 -50.3125 113.5625 -50.265625 110.89453125 C-49.05297958 106.65524214 -47.21649575 103.08048759 -45.0625 99.25 C-44.67964844 98.52232422 -44.29679688 97.79464844 -43.90234375 97.04492188 C-41.04196814 91.91250878 -41.04196814 91.91250878 -37.796875 90.35546875 C-34.41797452 90.63704379 -33.26531022 91.87749038 -30.8125 94.1875 C-22.51972838 101.1490314 -14.09936979 103.96973867 -3.375 104.0625 C-2.66529053 104.06894531 -1.95558105 104.07539062 -1.22436523 104.08203125 C3.43741022 103.96734771 6.74017147 103.03105322 10.6875 100.5625 C13.13278373 97.17065483 13.94008159 94.54769126 13.6875 90.4375 C13.14947969 87.4585665 12.74969177 86.63034557 10.625 84.3125 C1.95091336 79.14495902 -7.28676725 75.8532112 -16.7578125 72.44921875 C-23.45778169 69.95421862 -28.91528554 67.27070835 -34.3125 62.5625 C-35.02921875 61.96824219 -35.7459375 61.37398437 -36.484375 60.76171875 C-43.06483254 54.45816165 -45.43805546 48.71681402 -45.83398438 39.65454102 C-45.96983269 31.27641985 -45.48392583 24.48385275 -40.3125 17.5625 C-39.78140625 16.83804687 -39.2503125 16.11359375 -38.703125 15.3671875 C-28.99194799 3.29503626 -14.99163576 -0.19491911 0 0 Z " fill="#F8F8F8" transform="translate(225.3125,3.4375)"/>
<path d="M0 0 C0.969375 0.00064453 1.93875 0.00128906 2.9375 0.00195312 C4.4534375 0.02612305 4.4534375 0.02612305 6 0.05078125 C7.010625 0.04755859 8.02125 0.04433594 9.0625 0.04101562 C16.59928571 0.09613839 16.59928571 0.09613839 20 2.36328125 C20.37181091 4.76531982 20.37181091 4.76531982 20.36889648 7.81933594 C20.37577988 8.96102234 20.38266327 10.10270874 20.38975525 11.2789917 C20.38359695 12.518526 20.37743866 13.7580603 20.37109375 15.03515625 C20.3884809 17.64453253 20.40606523 20.2539075 20.42382812 22.86328125 C20.43690933 26.98893416 20.43750322 31.11456534 20.43579102 35.24023438 C20.43572993 39.21372565 20.46671375 43.18677398 20.49609375 47.16015625 C20.48791122 48.39159363 20.4797287 49.62303101 20.47129822 50.89178467 C20.52716334 57.31742298 20.56750561 61.52783283 25 66.36328125 C28.27873411 69.24459305 30.85125253 70.27491606 35.25 70.61328125 C40.65686419 70.25282364 44.44980381 68.91347744 48.3125 65.05078125 C52.50262645 58.37761691 52.29397064 51.93481404 52.30859375 44.2890625 C52.33373551 41.9068984 52.35913378 39.524737 52.38476562 37.14257812 C52.41359937 33.39640904 52.43762707 29.65028645 52.45629883 25.90405273 C52.47787044 22.28215511 52.51728233 18.66078069 52.55859375 15.0390625 C52.55870956 13.91405838 52.55882538 12.78905426 52.5589447 11.62995911 C52.57228348 10.588452 52.58562225 9.54694489 52.59936523 8.47387695 C52.60697121 7.09870659 52.60697121 7.09870659 52.61473083 5.695755 C53.07334466 2.91924237 53.76467925 2.02491846 56 0.36328125 C58.3125 -0.0090332 58.3125 -0.0090332 61 0 C61.969375 0.00064453 62.93875 0.00128906 63.9375 0.00195312 C65.4534375 0.02612305 65.4534375 0.02612305 67 0.05078125 C68.010625 0.04755859 69.02125 0.04433594 70.0625 0.04101562 C77.59928571 0.09613839 77.59928571 0.09613839 81 2.36328125 C81.29678977 5.22301558 81.39893217 7.86647949 81.37231445 10.72851562 C81.37596512 11.59366287 81.37961578 12.45881012 81.38337708 13.35017395 C81.39150484 16.21932404 81.37785409 19.08791329 81.36328125 21.95703125 C81.36276291 23.94478352 81.3632796 25.93253632 81.36479187 27.92028809 C81.36470205 32.09000278 81.35425204 36.25952454 81.33618164 40.42919922 C81.31349415 45.78293715 81.31294929 51.13639295 81.31969929 56.49016571 C81.32303549 60.5958712 81.31641577 64.70151197 81.30657005 68.8072052 C81.30271173 70.7816382 81.30157244 72.75607839 81.3031559 74.73051453 C81.30352539 77.48649899 81.29093909 80.24211724 81.2746582 82.99804688 C81.27713562 83.81992996 81.27961304 84.64181305 81.28216553 85.48860168 C81.22874039 91.13454086 81.22874039 91.13454086 79 93.36328125 C76.69335938 93.62207031 76.69335938 93.62207031 73.84375 93.62890625 C72.31041016 93.63277344 72.31041016 93.63277344 70.74609375 93.63671875 C69.67488281 93.62898438 68.60367188 93.62125 67.5 93.61328125 C65.89318359 93.62488281 65.89318359 93.62488281 64.25390625 93.63671875 C63.23167969 93.63414062 62.20945312 93.6315625 61.15625 93.62890625 C60.21587891 93.62665039 59.27550781 93.62439453 58.30664062 93.62207031 C56 93.36328125 56 93.36328125 54 91.36328125 C53.875 87.73828125 53.875 87.73828125 54 84.36328125 C53.34 84.36328125 52.68 84.36328125 52 84.36328125 C52 85.02328125 52 85.68328125 52 86.36328125 C43.7531777 93.67342744 33.70764943 95.9795278 22.91796875 95.64453125 C13.63853539 94.75012803 6.57312189 91.37193855 0.27734375 84.4765625 C-6.06202105 76.54846254 -8.0963429 68.2005153 -8.16113281 58.13012695 C-8.17074036 56.91899734 -8.1803479 55.70786774 -8.19024658 54.46003723 C-8.1966214 52.51915474 -8.1966214 52.51915474 -8.203125 50.5390625 C-8.20595238 49.87532309 -8.20877975 49.21158367 -8.21169281 48.52773094 C-8.2266171 45.02295923 -8.23589222 41.51822805 -8.24023438 38.01342773 C-8.24574384 34.39513541 -8.26984226 30.7772147 -8.29820633 27.1590395 C-8.31681033 24.37180985 -8.32203685 21.58467076 -8.32357025 18.79738426 C-8.32806669 16.81477381 -8.34671035 14.83221181 -8.36553955 12.84968567 C-8.3610379 11.04717598 -8.3610379 11.04717598 -8.35644531 9.20825195 C-8.36009094 8.14935257 -8.36373657 7.09045319 -8.36749268 5.99946594 C-8 3.36328125 -8 3.36328125 -6.62225342 1.52124023 C-4.36298619 -0.09141705 -2.75782538 -0.00926958 0 0 Z " fill="#F5F5F6" transform="translate(401,36.63671875)"/>
<path d="M0 0 C0.88365234 0.00193359 1.76730469 0.00386719 2.67773438 0.00585938 C3.59748047 0.01810547 4.51722656 0.03035156 5.46484375 0.04296875 C6.38845703 0.04361328 7.31207031 0.04425781 8.26367188 0.04492188 C15.12141758 0.09000567 15.12141758 0.09000567 17.40234375 1.23046875 C18.03515625 3.078125 18.03515625 3.078125 18.52734375 5.29296875 C18.69492187 6.02644531 18.8625 6.75992188 19.03515625 7.515625 C19.15632812 8.08152344 19.2775 8.64742187 19.40234375 9.23046875 C20.07330078 8.61558594 20.07330078 8.61558594 20.7578125 7.98828125 C29.39719458 0.2883629 38.05222878 -0.36969285 49.40234375 0.23046875 C51.75476304 2.58288804 50.58776509 8.44589988 50.58984375 11.60546875 C50.60208984 12.57742187 50.61433594 13.549375 50.62695312 14.55078125 C50.62888672 15.4840625 50.63082031 16.41734375 50.6328125 17.37890625 C50.63692139 18.23661621 50.64103027 19.09432617 50.64526367 19.97802734 C50.40234375 22.23046875 50.40234375 22.23046875 48.40234375 25.23046875 C45.20703125 25.56640625 45.20703125 25.56640625 41.27734375 25.60546875 C34.85773106 25.83463151 30.16337974 26.7139184 25.40234375 31.23046875 C19.64961862 37.94198141 20.09756343 48.85246735 20.0234375 57.234375 C20.00644302 58.23887192 19.98944855 59.24336884 19.97193909 60.27830505 C19.9192963 63.44979776 19.8786847 66.62127942 19.83984375 69.79296875 C19.79591052 72.99673338 19.74933486 76.20039817 19.69703674 79.40403748 C19.66506508 81.38936259 19.63817953 83.37477725 19.61680603 85.36024475 C19.60331619 86.24884689 19.58982635 87.13744904 19.57592773 88.05297852 C19.56641586 88.83778091 19.55690399 89.62258331 19.54710388 90.4311676 C19.40234375 92.23046875 19.40234375 92.23046875 18.40234375 93.23046875 C14.4295856 93.48303752 10.444682 93.41569326 6.46484375 93.41796875 C4.7797168 93.43633789 4.7797168 93.43633789 3.06054688 93.45507812 C1.98869141 93.45701172 0.91683594 93.45894531 -0.1875 93.4609375 C-1.67044556 93.46710083 -1.67044556 93.46710083 -3.18334961 93.47338867 C-5.59765625 93.23046875 -5.59765625 93.23046875 -7.59765625 91.23046875 C-7.80157351 88.40997735 -7.88082096 85.68726948 -7.87231445 82.86523438 C-7.87742538 82.00008713 -7.88253632 81.13493988 -7.88780212 80.24357605 C-7.90173936 77.37455389 -7.90073842 74.5057708 -7.8984375 71.63671875 C-7.90232185 69.64896555 -7.90665597 67.66121319 -7.91142273 65.67346191 C-7.91889361 61.50379752 -7.91858716 57.33421778 -7.91333008 53.16455078 C-7.90753098 47.81076108 -7.92447292 42.45731683 -7.94767475 37.10358429 C-7.96237707 32.99788371 -7.96328864 28.89226703 -7.96016502 24.7865448 C-7.96067989 22.81210139 -7.96594847 20.83765348 -7.97597694 18.86323547 C-7.9882579 16.10716013 -7.98160048 13.35176683 -7.9699707 10.59570312 C-7.97761444 9.77382004 -7.98525818 8.95193695 -7.99313354 8.10514832 C-7.97187805 5.83630371 -7.97187805 5.83630371 -7.59765625 2.23046875 C-4.42094629 0.11266211 -3.63518307 -0.01845271 0 0 Z " fill="#F7F7F7" transform="translate(506.59765625,36.76953125)"/>
<path d="M0 0 C0.96292969 -0.01224609 1.92585937 -0.02449219 2.91796875 -0.03710938 C3.84222656 -0.03904297 4.76648438 -0.04097656 5.71875 -0.04296875 C6.9862207 -0.04913208 6.9862207 -0.04913208 8.27929688 -0.05541992 C10.5 0.1875 10.5 0.1875 13.5 2.1875 C13.78613439 5.08820054 13.87808727 7.77446591 13.84057617 10.67626953 C13.84123329 11.99343964 13.84123329 11.99343964 13.84190369 13.33721924 C13.8398086 16.24847416 13.81644375 19.15915782 13.79296875 22.0703125 C13.78737536 24.08527308 13.78310405 26.10023774 13.78010559 28.11520386 C13.76863663 33.42538668 13.73915182 38.73532437 13.70599365 44.04541016 C13.67533693 49.46122928 13.66160967 54.87708792 13.64648438 60.29296875 C13.61428408 70.92458703 13.56306299 81.55602315 13.5 92.1875 C10.90446166 93.48526917 8.99294473 93.31700035 6.08984375 93.3203125 C4.48206055 93.32224609 4.48206055 93.32224609 2.84179688 93.32421875 C1.71837891 93.32035156 0.59496094 93.31648438 -0.5625 93.3125 C-2.25342773 93.31830078 -2.25342773 93.31830078 -3.97851562 93.32421875 C-5.04908203 93.32292969 -6.11964844 93.32164062 -7.22265625 93.3203125 C-8.21015869 93.31918457 -9.19766113 93.31805664 -10.21508789 93.31689453 C-12.5 93.1875 -12.5 93.1875 -13.5 92.1875 C-13.59520906 89.35709328 -13.62553631 86.55115007 -13.61352539 83.72045898 C-13.61367142 82.83273804 -13.61381744 81.94501709 -13.6139679 81.03039551 C-13.61326843 78.08143716 -13.60547448 75.13254113 -13.59765625 72.18359375 C-13.59579219 70.14478083 -13.59436823 68.10596746 -13.59336853 66.06715393 C-13.58954241 60.68965426 -13.57971132 55.31218142 -13.56866455 49.93469238 C-13.55845245 44.45190799 -13.55387134 38.96911928 -13.54882812 33.48632812 C-13.53808914 22.72004027 -13.52101159 11.95377236 -13.5 1.1875 C-9.04253884 -0.29832039 -4.66868558 0.00312496 0 0 Z " fill="#F8F8F8" transform="translate(582.5,36.8125)"/>
<path d="M0 0 C2.2421875 1.41796875 2.2421875 1.41796875 4 3 C4.45947423 6.1506804 4.52225401 8.07837528 2.9375 10.875 C-1.24744847 13.30497008 -5.84726941 12.09852575 -10.3125 11 C-15.21892749 9.85097339 -19.98759828 9.16168891 -25 10 C-28.2739971 11.85641749 -28.2739971 11.85641749 -30 15 C-30.76368668 19.27664542 -30.58063447 21.14840277 -28.125 24.75 C-22.48201097 28.8129521 -16.21072565 29.83954194 -9.4375 30.875 C-0.54353243 32.41795911 6.34648217 36.99966075 12 44 C14.90320327 48.71526975 14.71051801 53.63486401 14 59 C11.90003482 64.72717777 8.99868092 68.48780728 4 72 C-5.901146 76.51354702 -16.32383516 76.76035545 -27 77 C-27.78259658 79.30374755 -27.78259658 79.30374755 -28 82 C-26.82280105 84.12166356 -26.82280105 84.12166356 -24.9375 85.9375 C-24.29683594 86.62199219 -23.65617187 87.30648437 -22.99609375 88.01171875 C-21.73820742 89.26468185 -20.46168064 90.49945979 -19.16015625 91.70703125 C-17.7005549 93.06360192 -16.34041259 94.52554615 -15 96 C-15.19693907 98.45933668 -15.68539768 99.65146098 -17.33984375 101.484375 C-21.77777778 105 -21.77777778 105 -24 105 C-25.4453125 103.56640625 -25.4453125 103.56640625 -27.125 101.5625 C-30.48245509 97.60549936 -33.92175972 93.73534733 -37.3984375 89.8828125 C-40.26444837 86.51350216 -40.21852516 84.05485718 -40.3125 79.6875 C-40.34988281 78.55699219 -40.38726562 77.42648438 -40.42578125 76.26171875 C-39.89407 72.18851786 -38.98619452 70.80749311 -36 68 C-30.19969315 63.96048562 -24.79241257 63.44268547 -17.875 63.4375 C-9.53020556 63.42154013 -9.53020556 63.42154013 -2 60 C0.34549674 56.48175489 0.57991403 55.14224306 0 51 C-4.08441679 45.33451864 -9.45679857 44.13580036 -15.92773438 42.51806641 C-27.17692289 39.70576928 -34.94376004 36.89487267 -42.0625 27.1875 C-43.7275281 21.52640446 -44.26156169 16.05833137 -41.96875 10.5 C-33.10743029 -4.07194796 -14.96020194 -6.92443633 0 0 Z " fill="#EFEDE4" transform="translate(77,25)"/>
<path d="M0 0 C3.60540449 1.93316096 6.16768346 4.33536692 8 8 C9.03032087 17.83220489 9.03032087 17.83220489 7.0234375 22.0546875 C4.1725002 25.57026049 1.09963561 27.70203191 -3.3671875 28.3359375 C-9.10537931 28.42531743 -12.56519321 28.01244424 -17 24 C-20.26527219 20.21915852 -21.71544135 17.18382699 -21.4609375 12.09375 C-18.95487509 0.71028009 -10.51449043 -1.49123783 0 0 Z " fill="#F3F3F4" transform="translate(588,0)"/>
<path d="M0 0 C2 1.0625 2 1.0625 3 3 C3.5 6.4375 3.5 6.4375 3 10 C0.58140437 12.69500656 -1.00763965 13.80636871 -4.5625 14.5 C-7.9249123 13.8102744 -9.0486167 12.81866476 -11 10 C-11.42213381 6.56262469 -11.60856522 4.17909511 -10 1.0625 C-6.75978228 -0.65886567 -3.58042244 -0.52960415 0 0 Z " fill="#F3EFE4" transform="translate(71,127)"/>
<path d="M0 0 C3.8046875 0.8125 3.8046875 0.8125 5.5625 2.5 C7.65071186 6.1316728 8.79535227 10.00159477 10 14 C6.95483798 11.16667533 4.83131399 8.34499689 2.75 4.75 C2.22921875 3.85796875 1.7084375 2.9659375 1.171875 2.046875 C0.78515625 1.37140625 0.3984375 0.6959375 0 0 Z " fill="#3E7EB8" transform="translate(37,138)"/>
<path d="M0 0 C0 0.66 0 1.32 0 2 C-1.051875 2.391875 -2.10375 2.78375 -3.1875 3.1875 C-6.92791983 4.76241361 -9.2114542 7.05210873 -12 10 C-12.66 10 -13.32 10 -14 10 C-12.43076838 5.29230513 -9.0535267 3.57840681 -4.8125 1.25 C-2 0 -2 0 0 0 Z " fill="#2977BC" transform="translate(35,5)"/>
<path d="M0 0 C1.134375 0.020625 2.26875 0.04125 3.4375 0.0625 C3.4375 0.3925 3.4375 0.7225 3.4375 1.0625 C1.7875 1.3925 0.1375 1.7225 -1.5625 2.0625 C-2.2225 4.0425 -2.8825 6.0225 -3.5625 8.0625 C-4.2225 7.4025 -4.8825 6.7425 -5.5625 6.0625 C-4.83351201 0.08479846 -4.83351201 0.08479846 0 0 Z " fill="#2D7BBB" transform="translate(53.5625,100.9375)"/>
<path d="M0 0 C0.99 0.33 1.98 0.66 3 1 C0.69 3.31 -1.62 5.62 -4 8 C-4 4.87099787 -3.57548683 3.62581138 -2 1 C-1.34 0.67 -0.68 0.34 0 0 Z " fill="#CDCFD2" transform="translate(187,94)"/>
<path d="M0 0 C0.99 0.495 0.99 0.495 2 1 C2 1.66 2 2.32 2 3 C3.32 3.66 4.64 4.32 6 5 C6 6.65 6 8.3 6 10 C3.25722422 6.80009492 1.3697164 3.99500618 0 0 Z " fill="#4081B9" transform="translate(17,106)"/>
<path d="M0 0 C-1.28519565 2.86697492 -2.57129254 4.97607712 -5 7 C-5.66 7 -6.32 7 -7 7 C-3.86206897 0 -3.86206897 0 0 0 Z " fill="#CCCDD0" transform="translate(194,13)"/>
<path d="M0 0 C3.875 1.875 3.875 1.875 5 3 C5.04092937 5.33297433 5.04241723 7.66705225 5 10 C4.67 10 4.34 10 4 10 C4 8.02 4 6.04 4 4 C2.68 3.34 1.36 2.68 0 2 C0 1.34 0 0.68 0 0 Z " fill="#D7E0E0" transform="translate(69,127)"/>
</svg>
